<svg width="640" height="480" viewBox="0 0 640 480" fill="none" xmlns="http://www.w3.org/2000/svg">
  <rect width="640" height="480" rx="36" fill="#E8F8FF"/>
  <circle cx="533" cy="91" r="53" fill="#C2F2E2"/>
  <rect y="360" width="640" height="120" fill="#D5F0FF"/>
  <rect x="122" y="131" width="396" height="248" rx="18" fill="white"/>
  <rect x="101" y="158" width="438" height="61" rx="14" fill="#0F8B5F"/>
  <path d="M134 158H174L161 219H122L134 158Z" fill="#5DBEE2"/>
  <path d="M201 158H241L231 219H190L201 158Z" fill="#B8ECFF"/>
  <path d="M269 158H309L301 219H260L269 158Z" fill="#5DBEE2"/>
  <path d="M337 158H377L371 219H330L337 158Z" fill="#B8ECFF"/>
  <path d="M405 158H445L441 219H399L405 158Z" fill="#5DBEE2"/>
  <path d="M473 158H507L517 219H470L473 158Z" fill="#B8ECFF"/>
  <rect x="149" y="241" width="110" height="138" rx="12" fill="#DFF4EC"/>
  <rect x="285" y="269" width="71" height="110" rx="12" fill="#EAF4FF"/>
  <rect x="374" y="241" width="118" height="138" rx="12" fill="#DFF4EC"/>
  <rect x="303" y="130" width="34" height="69" rx="12" fill="white"/>
  <rect x="287" y="146" width="66" height="37" rx="12" fill="white"/>
  <text x="320" y="104" text-anchor="middle" fill="#13363E" font-family="Segoe UI, Arial, sans-serif" font-size="34" font-weight="700">Padmavati Medicals</text>
  <text x="320" y="336" text-anchor="middle" fill="#5A7C84" font-family="Segoe UI, Arial, sans-serif" font-size="24">Trusted local pharmacy storefront</text>
</svg>
