<svg width="640" height="480" viewBox="0 0 640 480" fill="none" xmlns="http://www.w3.org/2000/svg">
  <rect width="640" height="480" rx="36" fill="#F5FBFF"/>
  <circle cx="124" cy="84" r="52" fill="#D9F5EA"/>
  <rect x="94" y="118" width="452" height="144" rx="28" fill="white"/>
  <rect x="124" y="149" width="61" height="82" rx="12" fill="#C7EAFF"/>
  <rect x="202" y="138" width="41" height="93" rx="12" fill="#E1F8F0"/>
  <rect x="264" y="161" width="52" height="70" rx="12" fill="#C7EAFF"/>
  <rect x="335" y="144" width="65" height="87" rx="12" fill="#E1F8F0"/>
  <rect x="420" y="132" width="46" height="99" rx="12" fill="#C7EAFF"/>
  <rect x="487" y="157" width="31" height="74" rx="12" fill="#E1F8F0"/>
  <rect x="0" y="320" width="640" height="160" fill="#0F8B5F"/>
  <rect x="140" y="274" width="360" height="124" rx="24" fill="#DDF7EE"/>
  <circle cx="320" cy="238" r="58" fill="#13363E"/>
  <path d="M229 398C238.473 339.365 272.925 310 320 310C367.075 310 401.527 339.365 411 398H229Z" fill="white"/>
  <rect x="304" y="335" width="32" height="80" rx="12" fill="#5DBEE2"/>
  <rect x="280" y="359" width="80" height="32" rx="12" fill="#5DBEE2"/>
  <text x="320" y="84" text-anchor="middle" fill="#13363E" font-family="Segoe UI, Arial, sans-serif" font-size="36" font-weight="700">Prescription support at the counter</text>
  <text x="320" y="445" text-anchor="middle" fill="#E8FAF3" font-family="Segoe UI, Arial, sans-serif" font-size="24">Friendly local guidance for families and seniors</text>
</svg>
