<svg width="640" height="480" viewBox="0 0 640 480" fill="none" xmlns="http://www.w3.org/2000/svg">
  <rect width="640" height="480" rx="36" fill="#ECFAF6"/>
  <circle cx="505" cy="101" r="61" fill="#D8F1FF"/>
  <rect x="100" y="90" width="440" height="280" rx="24" fill="white"/>
  <rect x="136" y="128" width="368" height="18" rx="9" fill="#BEE8D6"/>
  <rect x="136" y="204" width="368" height="18" rx="9" fill="#BEE8D6"/>
  <rect x="136" y="280" width="368" height="18" rx="9" fill="#BEE8D6"/>
  <rect x="145" y="83" width="58" height="287" rx="20" fill="#E8F5FF"/>
  <rect x="437" y="83" width="58" height="287" rx="20" fill="#E8F5FF"/>
  <rect x="162" y="147" width="34" height="57" rx="12" fill="#5DBEE2"/>
  <rect x="226" y="162" width="62" height="42" rx="12" fill="#0F8B5F"/>
  <rect x="316" y="151" width="44" height="53" rx="12" fill="#5DBEE2"/>
  <rect x="387" y="172" width="36" height="32" rx="12" fill="#0F8B5F"/>
  <rect x="166" y="235" width="46" height="45" rx="12" fill="#0F8B5F"/>
  <rect x="241" y="225" width="39" height="55" rx="12" fill="#5DBEE2"/>
  <rect x="311" y="244" width="72" height="36" rx="12" fill="#0F8B5F"/>
  <rect x="398" y="230" width="30" height="50" rx="12" fill="#5DBEE2"/>
  <rect x="162" y="312" width="76" height="45" rx="12" fill="#5DBEE2"/>
  <rect x="263" y="302" width="34" height="55" rx="12" fill="#0F8B5F"/>
  <rect x="326" y="321" width="44" height="36" rx="12" fill="#5DBEE2"/>
  <rect x="392" y="306" width="37" height="51" rx="12" fill="#0F8B5F"/>
  <text x="320" y="61" text-anchor="middle" fill="#13363E" font-family="Segoe UI, Arial, sans-serif" font-size="34" font-weight="700">Healthcare, wellness, and daily essentials</text>
  <text x="320" y="430" text-anchor="middle" fill="#3E6A72" font-family="Segoe UI, Arial, sans-serif" font-size="24">Supplements, personal care, diabetic care, and more</text>
</svg>
